<mxfile host="app.diagrams.net" agent="Mozilla/5.0 (Windows NT 10.0; Win64; x64) AppleWebKit/537.36 (KHTML, like Gecko) Chrome/134.0.0.0 YaBrowser/25.4.0.0 Safari/537.36" version="24.7.16">
  <diagram name="Страница — 1" id="Is2f2-D6wVsWFYw5bFZH">
    <mxGraphModel dx="1434" dy="791" grid="1" gridSize="10" guides="1" tooltips="1" connect="1" arrows="1" fold="1" page="1" pageScale="1" pageWidth="827" pageHeight="1169" math="0" shadow="0">
      <root>
        <mxCell id="0" />
        <mxCell id="1" parent="0" />
        <mxCell id="DN-N1Pua4XSr7AiHZxMT-4" value="Операции" style="ellipse;whiteSpace=wrap;html=1;" vertex="1" parent="1">
          <mxGeometry x="353" y="30" width="120" height="80" as="geometry" />
        </mxCell>
        <mxCell id="DN-N1Pua4XSr7AiHZxMT-7" style="edgeStyle=orthogonalEdgeStyle;rounded=0;orthogonalLoop=1;jettySize=auto;html=1;exitX=0;exitY=0.5;exitDx=0;exitDy=0;entryX=1;entryY=0.5;entryDx=0;entryDy=0;" edge="1" parent="1" source="DN-N1Pua4XSr7AiHZxMT-6" target="DN-N1Pua4XSr7AiHZxMT-40">
          <mxGeometry relative="1" as="geometry">
            <mxPoint x="479" y="70" as="targetPoint" />
          </mxGeometry>
        </mxCell>
        <mxCell id="DN-N1Pua4XSr7AiHZxMT-6" value="Тикеры" style="ellipse;whiteSpace=wrap;html=1;" vertex="1" parent="1">
          <mxGeometry x="609" y="30" width="120" height="80" as="geometry" />
        </mxCell>
        <mxCell id="DN-N1Pua4XSr7AiHZxMT-9" style="edgeStyle=orthogonalEdgeStyle;rounded=0;orthogonalLoop=1;jettySize=auto;html=1;exitX=0.5;exitY=0;exitDx=0;exitDy=0;entryX=0.5;entryY=0;entryDx=0;entryDy=0;" edge="1" parent="1" source="DN-N1Pua4XSr7AiHZxMT-8" target="DN-N1Pua4XSr7AiHZxMT-44">
          <mxGeometry relative="1" as="geometry">
            <Array as="points">
              <mxPoint x="159" y="20" />
              <mxPoint x="509" y="20" />
            </Array>
          </mxGeometry>
        </mxCell>
        <mxCell id="DN-N1Pua4XSr7AiHZxMT-66" style="edgeStyle=orthogonalEdgeStyle;rounded=0;orthogonalLoop=1;jettySize=auto;html=1;exitX=1;exitY=0.5;exitDx=0;exitDy=0;entryX=0.5;entryY=0;entryDx=0;entryDy=0;" edge="1" parent="1" source="DN-N1Pua4XSr7AiHZxMT-8" target="DN-N1Pua4XSr7AiHZxMT-65">
          <mxGeometry relative="1" as="geometry">
            <Array as="points">
              <mxPoint x="319" y="70" />
              <mxPoint x="319" y="690" />
            </Array>
          </mxGeometry>
        </mxCell>
        <mxCell id="DN-N1Pua4XSr7AiHZxMT-8" value="Пользователи" style="ellipse;whiteSpace=wrap;html=1;" vertex="1" parent="1">
          <mxGeometry x="99" y="30" width="120" height="80" as="geometry" />
        </mxCell>
        <mxCell id="DN-N1Pua4XSr7AiHZxMT-13" style="edgeStyle=orthogonalEdgeStyle;rounded=0;orthogonalLoop=1;jettySize=auto;html=1;exitX=0;exitY=0.5;exitDx=0;exitDy=0;entryX=0.5;entryY=1;entryDx=0;entryDy=0;" edge="1" parent="1" source="DN-N1Pua4XSr7AiHZxMT-10" target="DN-N1Pua4XSr7AiHZxMT-6">
          <mxGeometry relative="1" as="geometry" />
        </mxCell>
        <mxCell id="DN-N1Pua4XSr7AiHZxMT-10" value="Тикер" style="rounded=0;whiteSpace=wrap;html=1;" vertex="1" parent="1">
          <mxGeometry x="699" y="140" width="120" height="60" as="geometry" />
        </mxCell>
        <mxCell id="DN-N1Pua4XSr7AiHZxMT-37" style="edgeStyle=orthogonalEdgeStyle;rounded=0;orthogonalLoop=1;jettySize=auto;html=1;exitX=0;exitY=0.5;exitDx=0;exitDy=0;entryX=0.5;entryY=1;entryDx=0;entryDy=0;" edge="1" parent="1" source="DN-N1Pua4XSr7AiHZxMT-11" target="DN-N1Pua4XSr7AiHZxMT-6">
          <mxGeometry relative="1" as="geometry" />
        </mxCell>
        <mxCell id="DN-N1Pua4XSr7AiHZxMT-11" value="Вид" style="rounded=0;whiteSpace=wrap;html=1;" vertex="1" parent="1">
          <mxGeometry x="699" y="210" width="120" height="60" as="geometry" />
        </mxCell>
        <mxCell id="DN-N1Pua4XSr7AiHZxMT-38" style="edgeStyle=orthogonalEdgeStyle;rounded=0;orthogonalLoop=1;jettySize=auto;html=1;exitX=0;exitY=0.5;exitDx=0;exitDy=0;entryX=0.5;entryY=1;entryDx=0;entryDy=0;" edge="1" parent="1" source="DN-N1Pua4XSr7AiHZxMT-12" target="DN-N1Pua4XSr7AiHZxMT-6">
          <mxGeometry relative="1" as="geometry" />
        </mxCell>
        <mxCell id="DN-N1Pua4XSr7AiHZxMT-12" value="Биржа" style="rounded=0;whiteSpace=wrap;html=1;" vertex="1" parent="1">
          <mxGeometry x="699" y="280" width="120" height="60" as="geometry" />
        </mxCell>
        <mxCell id="DN-N1Pua4XSr7AiHZxMT-19" style="edgeStyle=orthogonalEdgeStyle;rounded=0;orthogonalLoop=1;jettySize=auto;html=1;exitX=1;exitY=0.5;exitDx=0;exitDy=0;entryX=0.5;entryY=1;entryDx=0;entryDy=0;" edge="1" parent="1" source="DN-N1Pua4XSr7AiHZxMT-16" target="DN-N1Pua4XSr7AiHZxMT-8">
          <mxGeometry relative="1" as="geometry" />
        </mxCell>
        <mxCell id="DN-N1Pua4XSr7AiHZxMT-16" value="Логин" style="rounded=0;whiteSpace=wrap;html=1;" vertex="1" parent="1">
          <mxGeometry x="9" y="120" width="120" height="60" as="geometry" />
        </mxCell>
        <mxCell id="DN-N1Pua4XSr7AiHZxMT-20" style="edgeStyle=orthogonalEdgeStyle;rounded=0;orthogonalLoop=1;jettySize=auto;html=1;exitX=1;exitY=0.5;exitDx=0;exitDy=0;entryX=0.5;entryY=1;entryDx=0;entryDy=0;" edge="1" parent="1" source="DN-N1Pua4XSr7AiHZxMT-17" target="DN-N1Pua4XSr7AiHZxMT-8">
          <mxGeometry relative="1" as="geometry" />
        </mxCell>
        <mxCell id="DN-N1Pua4XSr7AiHZxMT-17" value="Пароль" style="rounded=0;whiteSpace=wrap;html=1;" vertex="1" parent="1">
          <mxGeometry x="9" y="190" width="120" height="60" as="geometry" />
        </mxCell>
        <mxCell id="DN-N1Pua4XSr7AiHZxMT-21" style="edgeStyle=orthogonalEdgeStyle;rounded=0;orthogonalLoop=1;jettySize=auto;html=1;exitX=1;exitY=0.5;exitDx=0;exitDy=0;entryX=0.5;entryY=1;entryDx=0;entryDy=0;" edge="1" parent="1" source="DN-N1Pua4XSr7AiHZxMT-18" target="DN-N1Pua4XSr7AiHZxMT-8">
          <mxGeometry relative="1" as="geometry" />
        </mxCell>
        <mxCell id="DN-N1Pua4XSr7AiHZxMT-18" value="Роль" style="rounded=0;whiteSpace=wrap;html=1;" vertex="1" parent="1">
          <mxGeometry x="9" y="260" width="120" height="60" as="geometry" />
        </mxCell>
        <mxCell id="DN-N1Pua4XSr7AiHZxMT-23" style="edgeStyle=orthogonalEdgeStyle;rounded=0;orthogonalLoop=1;jettySize=auto;html=1;exitX=0;exitY=0.5;exitDx=0;exitDy=0;entryX=0.5;entryY=1;entryDx=0;entryDy=0;" edge="1" parent="1" source="DN-N1Pua4XSr7AiHZxMT-22" target="DN-N1Pua4XSr7AiHZxMT-18">
          <mxGeometry relative="1" as="geometry" />
        </mxCell>
        <mxCell id="DN-N1Pua4XSr7AiHZxMT-22" value="Роли" style="ellipse;whiteSpace=wrap;html=1;" vertex="1" parent="1">
          <mxGeometry x="109" y="400" width="120" height="80" as="geometry" />
        </mxCell>
        <mxCell id="DN-N1Pua4XSr7AiHZxMT-26" style="edgeStyle=orthogonalEdgeStyle;rounded=0;orthogonalLoop=1;jettySize=auto;html=1;exitX=1;exitY=0.5;exitDx=0;exitDy=0;entryX=0.5;entryY=1;entryDx=0;entryDy=0;" edge="1" parent="1" source="DN-N1Pua4XSr7AiHZxMT-24" target="DN-N1Pua4XSr7AiHZxMT-22">
          <mxGeometry relative="1" as="geometry" />
        </mxCell>
        <mxCell id="DN-N1Pua4XSr7AiHZxMT-24" value="Роль" style="rounded=0;whiteSpace=wrap;html=1;" vertex="1" parent="1">
          <mxGeometry x="9" y="490" width="120" height="60" as="geometry" />
        </mxCell>
        <mxCell id="DN-N1Pua4XSr7AiHZxMT-27" style="edgeStyle=orthogonalEdgeStyle;rounded=0;orthogonalLoop=1;jettySize=auto;html=1;exitX=1;exitY=0.5;exitDx=0;exitDy=0;entryX=0.5;entryY=1;entryDx=0;entryDy=0;" edge="1" parent="1" source="DN-N1Pua4XSr7AiHZxMT-25" target="DN-N1Pua4XSr7AiHZxMT-22">
          <mxGeometry relative="1" as="geometry" />
        </mxCell>
        <mxCell id="DN-N1Pua4XSr7AiHZxMT-25" value="Приоритет" style="rounded=0;whiteSpace=wrap;html=1;" vertex="1" parent="1">
          <mxGeometry x="9" y="570" width="120" height="60" as="geometry" />
        </mxCell>
        <mxCell id="DN-N1Pua4XSr7AiHZxMT-33" style="edgeStyle=orthogonalEdgeStyle;rounded=0;orthogonalLoop=1;jettySize=auto;html=1;exitX=0;exitY=0.5;exitDx=0;exitDy=0;entryX=0.5;entryY=1;entryDx=0;entryDy=0;" edge="1" parent="1" source="DN-N1Pua4XSr7AiHZxMT-28" target="DN-N1Pua4XSr7AiHZxMT-8">
          <mxGeometry relative="1" as="geometry" />
        </mxCell>
        <mxCell id="DN-N1Pua4XSr7AiHZxMT-28" value="Фамилия" style="rounded=0;whiteSpace=wrap;html=1;" vertex="1" parent="1">
          <mxGeometry x="189" y="120" width="120" height="60" as="geometry" />
        </mxCell>
        <mxCell id="DN-N1Pua4XSr7AiHZxMT-32" style="edgeStyle=orthogonalEdgeStyle;rounded=0;orthogonalLoop=1;jettySize=auto;html=1;exitX=0;exitY=0.5;exitDx=0;exitDy=0;entryX=0.5;entryY=1;entryDx=0;entryDy=0;" edge="1" parent="1" source="DN-N1Pua4XSr7AiHZxMT-29" target="DN-N1Pua4XSr7AiHZxMT-8">
          <mxGeometry relative="1" as="geometry" />
        </mxCell>
        <mxCell id="DN-N1Pua4XSr7AiHZxMT-29" value="Имя" style="rounded=0;whiteSpace=wrap;html=1;" vertex="1" parent="1">
          <mxGeometry x="189" y="190" width="120" height="60" as="geometry" />
        </mxCell>
        <mxCell id="DN-N1Pua4XSr7AiHZxMT-31" style="edgeStyle=orthogonalEdgeStyle;rounded=0;orthogonalLoop=1;jettySize=auto;html=1;exitX=0;exitY=0.5;exitDx=0;exitDy=0;entryX=0.5;entryY=1;entryDx=0;entryDy=0;" edge="1" parent="1" source="DN-N1Pua4XSr7AiHZxMT-30" target="DN-N1Pua4XSr7AiHZxMT-8">
          <mxGeometry relative="1" as="geometry" />
        </mxCell>
        <mxCell id="DN-N1Pua4XSr7AiHZxMT-30" value="Отчество" style="rounded=0;whiteSpace=wrap;html=1;" vertex="1" parent="1">
          <mxGeometry x="189" y="260" width="120" height="60" as="geometry" />
        </mxCell>
        <mxCell id="DN-N1Pua4XSr7AiHZxMT-35" style="edgeStyle=orthogonalEdgeStyle;rounded=0;orthogonalLoop=1;jettySize=auto;html=1;exitX=0;exitY=0.5;exitDx=0;exitDy=0;entryX=0.5;entryY=1;entryDx=0;entryDy=0;" edge="1" parent="1" source="DN-N1Pua4XSr7AiHZxMT-34" target="DN-N1Pua4XSr7AiHZxMT-8">
          <mxGeometry relative="1" as="geometry" />
        </mxCell>
        <mxCell id="DN-N1Pua4XSr7AiHZxMT-34" value="e-mail" style="rounded=0;whiteSpace=wrap;html=1;" vertex="1" parent="1">
          <mxGeometry x="189" y="334.5" width="120" height="60" as="geometry" />
        </mxCell>
        <mxCell id="DN-N1Pua4XSr7AiHZxMT-46" style="edgeStyle=orthogonalEdgeStyle;rounded=0;orthogonalLoop=1;jettySize=auto;html=1;exitX=0;exitY=0.5;exitDx=0;exitDy=0;entryX=0.5;entryY=1;entryDx=0;entryDy=0;" edge="1" parent="1" source="DN-N1Pua4XSr7AiHZxMT-39" target="DN-N1Pua4XSr7AiHZxMT-4">
          <mxGeometry relative="1" as="geometry" />
        </mxCell>
        <mxCell id="DN-N1Pua4XSr7AiHZxMT-39" value="Идентификатор" style="rounded=0;whiteSpace=wrap;html=1;" vertex="1" parent="1">
          <mxGeometry x="449" y="200" width="120" height="60" as="geometry" />
        </mxCell>
        <mxCell id="DN-N1Pua4XSr7AiHZxMT-48" style="edgeStyle=orthogonalEdgeStyle;rounded=0;orthogonalLoop=1;jettySize=auto;html=1;exitX=0;exitY=0.5;exitDx=0;exitDy=0;entryX=0.5;entryY=1;entryDx=0;entryDy=0;" edge="1" parent="1" source="DN-N1Pua4XSr7AiHZxMT-40" target="DN-N1Pua4XSr7AiHZxMT-4">
          <mxGeometry relative="1" as="geometry" />
        </mxCell>
        <mxCell id="DN-N1Pua4XSr7AiHZxMT-40" value="Тикер" style="rounded=0;whiteSpace=wrap;html=1;" vertex="1" parent="1">
          <mxGeometry x="449" y="270" width="120" height="60" as="geometry" />
        </mxCell>
        <mxCell id="DN-N1Pua4XSr7AiHZxMT-49" style="edgeStyle=orthogonalEdgeStyle;rounded=0;orthogonalLoop=1;jettySize=auto;html=1;exitX=0;exitY=0.5;exitDx=0;exitDy=0;entryX=0.5;entryY=1;entryDx=0;entryDy=0;" edge="1" parent="1" source="DN-N1Pua4XSr7AiHZxMT-41" target="DN-N1Pua4XSr7AiHZxMT-4">
          <mxGeometry relative="1" as="geometry" />
        </mxCell>
        <mxCell id="DN-N1Pua4XSr7AiHZxMT-41" value="Цена" style="rounded=0;whiteSpace=wrap;html=1;" vertex="1" parent="1">
          <mxGeometry x="449" y="340" width="120" height="60" as="geometry" />
        </mxCell>
        <mxCell id="DN-N1Pua4XSr7AiHZxMT-51" style="edgeStyle=orthogonalEdgeStyle;rounded=0;orthogonalLoop=1;jettySize=auto;html=1;exitX=0;exitY=0.5;exitDx=0;exitDy=0;entryX=0.5;entryY=1;entryDx=0;entryDy=0;" edge="1" parent="1" source="DN-N1Pua4XSr7AiHZxMT-42" target="DN-N1Pua4XSr7AiHZxMT-4">
          <mxGeometry relative="1" as="geometry" />
        </mxCell>
        <mxCell id="DN-N1Pua4XSr7AiHZxMT-42" value="Количество" style="rounded=0;whiteSpace=wrap;html=1;" vertex="1" parent="1">
          <mxGeometry x="449" y="414.5" width="120" height="60" as="geometry" />
        </mxCell>
        <mxCell id="DN-N1Pua4XSr7AiHZxMT-52" style="edgeStyle=orthogonalEdgeStyle;rounded=0;orthogonalLoop=1;jettySize=auto;html=1;exitX=0;exitY=0.5;exitDx=0;exitDy=0;entryX=0.5;entryY=1;entryDx=0;entryDy=0;" edge="1" parent="1" source="DN-N1Pua4XSr7AiHZxMT-43" target="DN-N1Pua4XSr7AiHZxMT-4">
          <mxGeometry relative="1" as="geometry" />
        </mxCell>
        <mxCell id="DN-N1Pua4XSr7AiHZxMT-43" value="Оборот" style="rounded=0;whiteSpace=wrap;html=1;" vertex="1" parent="1">
          <mxGeometry x="449" y="490" width="120" height="60" as="geometry" />
        </mxCell>
        <mxCell id="DN-N1Pua4XSr7AiHZxMT-45" style="edgeStyle=orthogonalEdgeStyle;rounded=0;orthogonalLoop=1;jettySize=auto;html=1;exitX=0;exitY=0.5;exitDx=0;exitDy=0;entryX=0.5;entryY=1;entryDx=0;entryDy=0;" edge="1" parent="1" source="DN-N1Pua4XSr7AiHZxMT-44" target="DN-N1Pua4XSr7AiHZxMT-4">
          <mxGeometry relative="1" as="geometry" />
        </mxCell>
        <mxCell id="DN-N1Pua4XSr7AiHZxMT-44" value="Логин" style="rounded=0;whiteSpace=wrap;html=1;" vertex="1" parent="1">
          <mxGeometry x="449" y="130" width="120" height="60" as="geometry" />
        </mxCell>
        <mxCell id="DN-N1Pua4XSr7AiHZxMT-54" style="edgeStyle=orthogonalEdgeStyle;rounded=0;orthogonalLoop=1;jettySize=auto;html=1;exitX=0;exitY=0.5;exitDx=0;exitDy=0;entryX=0.5;entryY=1;entryDx=0;entryDy=0;" edge="1" parent="1" source="DN-N1Pua4XSr7AiHZxMT-53" target="DN-N1Pua4XSr7AiHZxMT-4">
          <mxGeometry relative="1" as="geometry" />
        </mxCell>
        <mxCell id="DN-N1Pua4XSr7AiHZxMT-53" value="Тип" style="rounded=0;whiteSpace=wrap;html=1;" vertex="1" parent="1">
          <mxGeometry x="449" y="630" width="120" height="60" as="geometry" />
        </mxCell>
        <mxCell id="DN-N1Pua4XSr7AiHZxMT-58" style="edgeStyle=orthogonalEdgeStyle;rounded=0;orthogonalLoop=1;jettySize=auto;html=1;exitX=0;exitY=0.5;exitDx=0;exitDy=0;entryX=0.5;entryY=1;entryDx=0;entryDy=0;" edge="1" parent="1" source="DN-N1Pua4XSr7AiHZxMT-55" target="DN-N1Pua4XSr7AiHZxMT-4">
          <mxGeometry relative="1" as="geometry" />
        </mxCell>
        <mxCell id="DN-N1Pua4XSr7AiHZxMT-55" value="Дата" style="rounded=0;whiteSpace=wrap;html=1;" vertex="1" parent="1">
          <mxGeometry x="449" y="700" width="120" height="60" as="geometry" />
        </mxCell>
        <mxCell id="DN-N1Pua4XSr7AiHZxMT-57" style="edgeStyle=orthogonalEdgeStyle;rounded=0;orthogonalLoop=1;jettySize=auto;html=1;exitX=0;exitY=0.5;exitDx=0;exitDy=0;entryX=0.5;entryY=1;entryDx=0;entryDy=0;" edge="1" parent="1" source="DN-N1Pua4XSr7AiHZxMT-56" target="DN-N1Pua4XSr7AiHZxMT-4">
          <mxGeometry relative="1" as="geometry" />
        </mxCell>
        <mxCell id="DN-N1Pua4XSr7AiHZxMT-56" value="Время" style="rounded=0;whiteSpace=wrap;html=1;" vertex="1" parent="1">
          <mxGeometry x="449" y="770" width="120" height="60" as="geometry" />
        </mxCell>
        <mxCell id="DN-N1Pua4XSr7AiHZxMT-61" style="edgeStyle=orthogonalEdgeStyle;rounded=0;orthogonalLoop=1;jettySize=auto;html=1;exitX=0;exitY=0.5;exitDx=0;exitDy=0;entryX=0.5;entryY=1;entryDx=0;entryDy=0;" edge="1" parent="1" source="DN-N1Pua4XSr7AiHZxMT-60" target="DN-N1Pua4XSr7AiHZxMT-4">
          <mxGeometry relative="1" as="geometry" />
        </mxCell>
        <mxCell id="DN-N1Pua4XSr7AiHZxMT-60" value="Комиссия" style="rounded=0;whiteSpace=wrap;html=1;" vertex="1" parent="1">
          <mxGeometry x="449" y="560" width="120" height="60" as="geometry" />
        </mxCell>
        <mxCell id="DN-N1Pua4XSr7AiHZxMT-62" value="Сделки" style="ellipse;whiteSpace=wrap;html=1;" vertex="1" parent="1">
          <mxGeometry x="99" y="680" width="120" height="80" as="geometry" />
        </mxCell>
        <mxCell id="DN-N1Pua4XSr7AiHZxMT-64" style="edgeStyle=orthogonalEdgeStyle;rounded=0;orthogonalLoop=1;jettySize=auto;html=1;exitX=0;exitY=0.5;exitDx=0;exitDy=0;entryX=0.5;entryY=1;entryDx=0;entryDy=0;" edge="1" parent="1" source="DN-N1Pua4XSr7AiHZxMT-63" target="DN-N1Pua4XSr7AiHZxMT-4">
          <mxGeometry relative="1" as="geometry" />
        </mxCell>
        <mxCell id="DN-N1Pua4XSr7AiHZxMT-63" value="Номер сделки" style="rounded=0;whiteSpace=wrap;html=1;" vertex="1" parent="1">
          <mxGeometry x="449" y="840" width="120" height="60" as="geometry" />
        </mxCell>
        <mxCell id="DN-N1Pua4XSr7AiHZxMT-67" style="edgeStyle=orthogonalEdgeStyle;rounded=0;orthogonalLoop=1;jettySize=auto;html=1;exitX=0;exitY=0.5;exitDx=0;exitDy=0;entryX=1;entryY=0.5;entryDx=0;entryDy=0;" edge="1" parent="1" source="DN-N1Pua4XSr7AiHZxMT-65" target="DN-N1Pua4XSr7AiHZxMT-62">
          <mxGeometry relative="1" as="geometry" />
        </mxCell>
        <mxCell id="DN-N1Pua4XSr7AiHZxMT-65" value="Логин" style="rounded=0;whiteSpace=wrap;html=1;" vertex="1" parent="1">
          <mxGeometry x="259" y="690" width="120" height="60" as="geometry" />
        </mxCell>
        <mxCell id="DN-N1Pua4XSr7AiHZxMT-74" style="edgeStyle=orthogonalEdgeStyle;rounded=0;orthogonalLoop=1;jettySize=auto;html=1;exitX=0;exitY=0.5;exitDx=0;exitDy=0;entryX=0.5;entryY=1;entryDx=0;entryDy=0;" edge="1" parent="1" source="DN-N1Pua4XSr7AiHZxMT-68" target="DN-N1Pua4XSr7AiHZxMT-62">
          <mxGeometry relative="1" as="geometry" />
        </mxCell>
        <mxCell id="DN-N1Pua4XSr7AiHZxMT-68" value="Идентификатор" style="rounded=0;whiteSpace=wrap;html=1;" vertex="1" parent="1">
          <mxGeometry x="259" y="760" width="120" height="60" as="geometry" />
        </mxCell>
        <mxCell id="DN-N1Pua4XSr7AiHZxMT-76" style="edgeStyle=orthogonalEdgeStyle;rounded=0;orthogonalLoop=1;jettySize=auto;html=1;exitX=0;exitY=0.5;exitDx=0;exitDy=0;entryX=0.5;entryY=1;entryDx=0;entryDy=0;" edge="1" parent="1" source="DN-N1Pua4XSr7AiHZxMT-70" target="DN-N1Pua4XSr7AiHZxMT-62">
          <mxGeometry relative="1" as="geometry" />
        </mxCell>
        <mxCell id="DN-N1Pua4XSr7AiHZxMT-70" value="Оборот" style="rounded=0;whiteSpace=wrap;html=1;" vertex="1" parent="1">
          <mxGeometry x="259" y="900" width="120" height="60" as="geometry" />
        </mxCell>
        <mxCell id="DN-N1Pua4XSr7AiHZxMT-77" style="edgeStyle=orthogonalEdgeStyle;rounded=0;orthogonalLoop=1;jettySize=auto;html=1;exitX=0;exitY=0.5;exitDx=0;exitDy=0;entryX=0.5;entryY=1;entryDx=0;entryDy=0;" edge="1" parent="1" source="DN-N1Pua4XSr7AiHZxMT-71" target="DN-N1Pua4XSr7AiHZxMT-62">
          <mxGeometry relative="1" as="geometry" />
        </mxCell>
        <mxCell id="DN-N1Pua4XSr7AiHZxMT-71" value="Комиссия" style="rounded=0;whiteSpace=wrap;html=1;" vertex="1" parent="1">
          <mxGeometry x="259" y="970" width="120" height="60" as="geometry" />
        </mxCell>
        <mxCell id="DN-N1Pua4XSr7AiHZxMT-75" style="edgeStyle=orthogonalEdgeStyle;rounded=0;orthogonalLoop=1;jettySize=auto;html=1;exitX=0;exitY=0.5;exitDx=0;exitDy=0;entryX=0.5;entryY=1;entryDx=0;entryDy=0;" edge="1" parent="1" source="DN-N1Pua4XSr7AiHZxMT-72" target="DN-N1Pua4XSr7AiHZxMT-62">
          <mxGeometry relative="1" as="geometry">
            <mxPoint x="160" y="760" as="targetPoint" />
          </mxGeometry>
        </mxCell>
        <mxCell id="DN-N1Pua4XSr7AiHZxMT-72" value="Тикер" style="rounded=0;whiteSpace=wrap;html=1;" vertex="1" parent="1">
          <mxGeometry x="259" y="830" width="120" height="60" as="geometry" />
        </mxCell>
        <mxCell id="DN-N1Pua4XSr7AiHZxMT-78" style="edgeStyle=orthogonalEdgeStyle;rounded=0;orthogonalLoop=1;jettySize=auto;html=1;exitX=0;exitY=0.5;exitDx=0;exitDy=0;entryX=0.5;entryY=1;entryDx=0;entryDy=0;" edge="1" parent="1" source="DN-N1Pua4XSr7AiHZxMT-73" target="DN-N1Pua4XSr7AiHZxMT-62">
          <mxGeometry relative="1" as="geometry" />
        </mxCell>
        <mxCell id="DN-N1Pua4XSr7AiHZxMT-73" value="Итог" style="rounded=0;whiteSpace=wrap;html=1;" vertex="1" parent="1">
          <mxGeometry x="259" y="1040" width="120" height="60" as="geometry" />
        </mxCell>
      </root>
    </mxGraphModel>
  </diagram>
</mxfile>
